<?xml version="1.0" encoding="utf-8"?>
<!-- Generator: Adobe Illustrator 13.0.0, SVG Export Plug-In . SVG Version: 6.00 Build 14948)  -->
<!DOCTYPE svg PUBLIC "-//W3C//DTD SVG 1.1//EN" "http://www.w3.org/Graphics/SVG/1.1/DTD/svg11.dtd">
<svg version="1.1" xmlns="http://www.w3.org/2000/svg" xmlns:xlink="http://www.w3.org/1999/xlink" x="0px" y="0px" width="512px"
	 height="512px" viewBox="0 0 512 512" enable-background="new 0 0 512 512" xml:space="preserve">
<g id="Layer_2">
	<circle fill="#362224" cx="258.992" cy="275.19" r="190.39"/>
</g>
<g id="Layer_1">
	<path id="livejournal-icon_2_" fill="#DFD9BB" d="M275.238,197.137c0,0-120.093,89.878-133.548,100.542
		c-6.027,4.776-9.305,12.104-9.305,21.085c0,11.068,4.974,24.651,15.906,39.087c19.804,26.152,41.131,33.007,55.857,22.597
		c14.726-10.408,134.438-101.176,134.438-101.176l40.37-95.592L275.238,197.137z M276.763,216.93
		c3.747,4.888,5.762,11.539,5.607,18.984c-0.23,11.492-5.513,22.18-14.132,28.59c0,0-54.803,41.022-69.092,51.719
		c-9.289-13.517-11.882-26.722-12.556-31.607C217.172,261.574,259.009,230.226,276.763,216.93z M175.72,292.817
		c1.837,7.98,5.858,19.96,14.605,32.047c8.725,12.057,20.317,19.51,28.696,23.7c-4.331,3.246-8.285,6.203-11.733,8.772
		c-6.808-2.912-19.576-9.627-28.417-21.844c-11.492-15.881-13.512-31.746-13.792-34.625
		C168.232,298.475,171.818,295.763,175.72,292.817z M184.099,367.206c-6.988-2.667-14.96-9.58-22.449-19.471
		c-7.949-10.496-12.507-21.057-12.507-28.971c0-3.723,0.994-6.397,2.955-7.952c0.509-0.402,1.187-0.932,1.999-1.56
		c1.688,7.94,5.653,20.603,14.903,33.383c8.206,11.341,18.947,18.604,27.167,22.916c-0.661,0.479-1.234,0.892-1.69,1.215
		C193.37,367.548,190.434,369.621,184.099,367.206z M230.156,340.201c-5.485-2.191-17.091-7.695-26.316-17.979
		c12.347-9.242,53.932-40.38,69.107-51.706c7.851-5.861,18.43-8.158,29.023-6.307c7.281,1.272,13.708,4.484,17.407,8.593
		C301.44,286.391,260.582,317.323,230.156,340.201z M346.907,216.494L325.2,267.896c-4.853-5.496-12.794-9.592-21.919-11.188
		c-6.418-1.123-12.853-0.946-18.881,0.423c3.452-6.305,5.435-13.544,5.586-21.063c0.006-0.309,0.009-0.614,0.009-0.92
		c0-8.489-2.368-16.201-6.674-22.16l56.019-7.27C339.854,210.844,342.309,214.487,346.907,216.494z"/>
</g>
</svg>
